<svg xmlns="http://www.w3.org/2000/svg" xmlns:xlink="http://www.w3.org/1999/xlink" version="1.1" x="0px" y="0px" viewBox="0 0 96 120" style="enable-background:new 0 0 96 96;" xml:space="preserve"><path d="M31.696,21.603c0-0.8,0.648-1.448,1.448-1.448h29.71c0.8,0,1.448,0.649,1.448,1.448s-0.649,1.448-1.448,1.448h-29.71  C32.345,23.051,31.696,22.403,31.696,21.603z M92.901,78.58c0,5.408-4.4,9.808-9.808,9.808l-51.892-0.15  c-0.071,0-0.141-0.007-0.21-0.017c-4.915-0.135-8.37-4.45-9.256-9.003H10.33c-1.991,0-3.61-1.619-3.61-3.61V30.01  c0-1.991,1.619-3.61,3.61-3.61h3.798h7.38v-3.348H5.668c-0.517,0-0.994-0.275-1.253-0.723c-0.861-1.486-1.316-3.184-1.316-4.909  c0-5.408,4.4-9.808,9.808-9.808c0.001,0,0.002,0,0.004,0c0,0,0.001,0,0.001,0c0.022,0,0.042,0,0.063,0l51.825,0.161  c5.798,0.018,9.693,5.876,9.693,11.337v27.506c8.363,0.736,14.944,7.777,14.944,16.327c0,3.764-1.276,7.235-3.417,10.005h4.313  c0.517,0,0.994,0.275,1.253,0.723C92.447,75.158,92.901,76.855,92.901,78.58z M73.044,49.449c-7.441,0-13.495,6.054-13.495,13.495  c0,7.441,6.054,13.495,13.495,13.495s13.495-6.054,13.495-13.495C86.539,55.502,80.485,49.449,73.044,49.449z M36.912,64.15h19.784  c-0.029-0.398-0.045-0.801-0.045-1.206c0-1.632,0.241-3.208,0.687-4.696H36.912V64.15z M21.508,20.155V19.11  c0-4.723-3.827-8.57-8.543-8.601l-0.063,0c0,0-0.001,0-0.001,0c-3.808,0.003-6.906,3.102-6.906,6.911  c0,0.944,0.193,1.876,0.563,2.735H21.508z M24.405,26.4h5.099h3.798c1.623,0,2.999,1.077,3.452,2.554H60.75h2.105  c0.8,0,1.448,0.649,1.448,1.448s-0.649,1.448-1.448,1.448H60.75H36.912v5.902h7.634h18.308c0.8,0,1.448,0.649,1.448,1.448  s-0.649,1.448-1.448,1.448H44.547h-7.634v5.902h25.943c0.8,0,1.448,0.649,1.448,1.448s-0.649,1.448-1.448,1.448H36.912v5.902H58.52  c2.531-4.821,7.391-8.234,13.075-8.734V19.11c0-3.982-2.795-8.428-6.805-8.44l-44.234-0.137c2.361,2.107,3.849,5.172,3.849,8.578  V26.4z M15.88,29.297l0.489,2.551h10.894l0.489-2.551H15.88z M10.33,76.321h22.972c0.387,0,0.713-0.327,0.713-0.713V30.01  c0-0.387-0.327-0.713-0.713-0.713h-2.601l-0.818,4.272c-0.131,0.682-0.728,1.176-1.423,1.176H15.172  c-0.695,0-1.292-0.493-1.423-1.176l-0.818-4.272H10.33c-0.387,0-0.713,0.327-0.713,0.713v45.598  C9.617,75.994,9.943,76.321,10.33,76.321z M38.117,78.43c0-2.031-0.112-2.196-0.411-2.639c-0.116-0.172-0.261-0.386-0.425-0.668  c-0.259-0.448-0.26-1.001-0.001-1.449c0.259-0.449,0.737-0.725,1.255-0.725h21.535c-1.335-1.728-2.335-3.728-2.897-5.902h-20.26  v8.561c0,1.991-1.619,3.61-3.61,3.61h-8.597c0.815,3.163,3.247,6.103,6.505,6.113c0.039,0,0.077,0.003,0.115,0.006  C35.053,85.242,38.117,80.741,38.117,78.43z M90.005,78.58c0-0.944-0.193-1.876-0.563-2.735h-6.298  c-2.786,2.186-6.293,3.49-10.1,3.49c-3.807,0-7.315-1.305-10.1-3.49H40.846c0.117,0.591,0.168,1.378,0.168,2.584  c0,2.13-1.328,4.883-3.424,6.93l45.509,0.132C86.904,85.491,90.005,82.391,90.005,78.58z M25.025,69.169h-6.418  c-0.8,0-1.448,0.649-1.448,1.448c0,0.8,0.648,1.448,1.448,1.448h6.418c0.8,0,1.448-0.649,1.448-1.448  C26.473,69.818,25.825,69.169,25.025,69.169z M71.595,53.487v0.83c-0.002,0-0.003,0.001-0.005,0.001  c-2.686,0.609-4.41,2.691-4.289,5.181c0.087,1.8,1.116,4.097,5.521,4.82c2.959,0.486,3.452,1.483,3.551,2.297  c0.058,0.479-0.045,0.852-0.324,1.175c-0.517,0.598-1.661,1.019-2.846,1.047c-1.372,0.033-3.127-0.53-3.549-2.225  c-0.193-0.776-0.979-1.248-1.756-1.055c-0.776,0.194-1.248,0.98-1.055,1.756c0.554,2.22,2.377,3.812,4.751,4.28V72.4  c0,0.8,0.649,1.448,1.448,1.448c0.8,0,1.448-0.649,1.448-1.448v-0.782c1.547-0.263,2.899-0.949,3.749-1.931  c0.817-0.944,1.165-2.127,1.008-3.419c-0.315-2.592-2.319-4.209-5.957-4.807c-3.019-0.496-3.076-1.663-3.097-2.102  c-0.062-1.279,1.011-1.983,2.036-2.215c1.415-0.321,3.161,0.118,3.877,1.822c0.31,0.737,1.158,1.085,1.896,0.775  c0.737-0.31,1.084-1.159,0.775-1.896c-0.868-2.068-2.538-3.165-4.286-3.539v-0.817c0-0.8-0.649-1.448-1.448-1.448  C72.244,52.039,71.595,52.688,71.595,53.487z"/><text x="0" y="111" fill="#000000" font-size="5px" font-weight="bold" font-family="'Helvetica Neue', Helvetica, Arial-Unicode, Arial, Sans-serif">Created by Eko Purnomo</text><text x="0" y="116" fill="#000000" font-size="5px" font-weight="bold" font-family="'Helvetica Neue', Helvetica, Arial-Unicode, Arial, Sans-serif">from the Noun Project</text></svg>